# xmcd CD database file
#
# Track frame offsets:
#	150
#	24102
#	41427
#	60547
#	79910
#	100210
#	114857
#	137147
#	158975
#	180920
#	206717
#	226632
#	249987
#	270922
#	286582
#	307597
#	332362
#
# Disc length: 4691 seconds
#
# Revision: 2
# Processed by: cddbd v1.4PL0 Copyright (c) Steve Scherf et al.
# Submitted via: CDex 1.50
#
DISCID=c1125111
DTITLE=Carlos Santana - The Best Of
DYEAR=1999
DGENRE=Blues-Rock
TTITLE0=Black Magic Woman
TTITLE1=Evil Ways
TTITLE2=Jingo
TTITLE3=Hannibal
TTITLE4=Full Moon
TTITLE5=Everything's Coming Our Way
TTITLE6=Europa
TTITLE7=Brightest Star
TTITLE8=Flor D'Luna (Moonflower)
TTITLE9=Guajira
TTITLE10=Hold On
TTITLE11=I'll Be Waiting
TTITLE12=I Love You Much Too Much
TTITLE13=Winning
TTITLE14=Mirage
TTITLE15=No One To Depend On
TTITLE16=Oye Como Va
EXTD=YEAR: 1999
EXTT0=
EXTT1=
EXTT2=
EXTT3=
EXTT4=
EXTT5=
EXTT6=
EXTT7=
EXTT8=
EXTT9=
EXTT10=
EXTT11=
EXTT12=
EXTT13=
EXTT14=
EXTT15=
EXTT16=
PLAYORDER=
